HIERARCHY
ROOT Reference
{
  OFFSET 0 0 0
  CHANNELS 6 Xposition Yposition Zposition Zrotation Xrotation Yrotation
  JOINT Hips
  {
    OFFSET 251.394 724.17 483.536
    CHANNELS 3 Zrotation Xrotation Yrotation
    JOINT RightUpLeg
    {
      OFFSET -0.450515 -23.4426 -1.37224
      CHANNELS 3 Zrotation Xrotation Yrotation
      JOINT RightLeg
      {
        OFFSET 112.821 0.0872427 -0.321027
        CHANNELS 3 Zrotation Xrotation Yrotation
        JOINT RightFoot
        {
          OFFSET 105.718 0.000193788 0.0213165
          CHANNELS 3 Zrotation Xrotation Yrotation
          JOINT RightToeBase
          {
            OFFSET 37.638 -0.000116272 0.00224792
            CHANNELS 3 Zrotation Xrotation Yrotation
            JOINT RightToeEnd
            {
              OFFSET 21.2112 0.114605 -0.000138184
              CHANNELS 3 Zrotation Xrotation Yrotation
              End Site
              {
                OFFSET 0 0 0
              }
            }
          }
        }
      }
    }
    JOINT LeftUpLeg
    {
      OFFSET -0.449508 23.4315 -1.37054
      CHANNELS 3 Zrotation Xrotation Yrotation
      JOINT LeftLeg
      {
        OFFSET 112.821 -0.0485242 -0.372458
        CHANNELS 3 Zrotation Xrotation Yrotation
        JOINT LeftFoot
        {
          OFFSET 105.716 0.00496094 -0.0229443
          CHANNELS 3 Zrotation Xrotation Yrotation
          JOINT LeftToeBase
          {
            OFFSET 37.639 0 0.00158905
            CHANNELS 3 Zrotation Xrotation Yrotation
            JOINT LeftToeEnd
            {
              OFFSET 21.2113 -0.125031 -0.00017438
              CHANNELS 3 Zrotation Xrotation Yrotation
              End Site
              {
                OFFSET 0 0 0
              }
            }
          }
        }
      }
    }
    JOINT Spine
    {
      OFFSET -5.01225 0.000463591 -9.60395
      CHANNELS 3 Zrotation Xrotation Yrotation
      JOINT Spine1
      {
        OFFSET 26.0222 -0.000271301 -0.000155029
        CHANNELS 3 Zrotation Xrotation Yrotation
        JOINT Spine2
        {
          OFFSET 27.173 -0.000155029 -0.000310058
          CHANNELS 3 Zrotation Xrotation Yrotation
          JOINT Spine3
          {
            OFFSET 36.3953 -0.000232544 7.75146e-005
            CHANNELS 3 Zrotation Xrotation Yrotation
            JOINT Neck
            {
              OFFSET 36.4331 0 -3.00261
              CHANNELS 3 Zrotation Xrotation Yrotation
              JOINT Head
              {
                OFFSET 23.0407 -0.000232544 -0.000310058
                CHANNELS 3 Zrotation Xrotation Yrotation
                End Site
                {
                  OFFSET 0 0 0
                }
              }
            }
            JOINT LeftShoulder
            {
              OFFSET 20.1317 6.74168 -12.6061
              CHANNELS 3 Zrotation Xrotation Yrotation
              JOINT LeftArm
              {
                OFFSET 34.2172 -5.81359e-005 7.75146e-005
                CHANNELS 3 Zrotation Xrotation Yrotation
                JOINT LeftForeArm
                {
                  OFFSET 65.4129 -0.0821605 0.0585235
                  CHANNELS 3 Zrotation Xrotation Yrotation
                  JOINT LeftHand
                  {
                    OFFSET 67.3883 0.0359667 0.0112396
                    CHANNELS 3 Zrotation Xrotation Yrotation
                    JOINT LeftHandThumb1
                    {
                      OFFSET 8.78386 2.85353 -6.05362
                      CHANNELS 3 Zrotation Xrotation Yrotation
                      JOINT LeftHandThumb2
                      {
                        OFFSET 8.25498 -0.000116272 -0.000174407
                        CHANNELS 3 Zrotation Xrotation Yrotation
                        JOINT LeftHandThumb3
                        {
                          OFFSET 7.24822 0.000310058 5.81358e-005
                          CHANNELS 3 Zrotation Xrotation Yrotation
                          JOINT LeftHandThumb4
                          {
                            OFFSET 7.0004 -3.87568e-005 -0.000310057
                            CHANNELS 3 Zrotation Xrotation Yrotation
                            End Site
                            {
                              OFFSET 0 0 0
                            }
                          }
                        }
                      }
                    }
                    JOINT LeftHandIndex1
                    {
                      OFFSET 24.0991 -1.01537 -5.40558
                      CHANNELS 3 Zrotation Xrotation Yrotation
                      JOINT LeftHandIndex2
                      {
                        OFFSET 7.26759 -0.000290679 -0.000465086
                        CHANNELS 3 Zrotation Xrotation Yrotation
                        JOINT LeftHandIndex3
                        {
                          OFFSET 7.13628 -1.93787e-005 0.000232543
                          CHANNELS 3 Zrotation Xrotation Yrotation
                          JOINT LeftHandIndex4
                          {
                            OFFSET 5.46699 9.68932e-005 -0.000387571
                            CHANNELS 3 Zrotation Xrotation Yrotation
                            End Site
                            {
                              OFFSET 0 0 0
                            }
                          }
                        }
                      }
                    }
                    JOINT LeftHandMiddle1
                    {
                      OFFSET 24.4604 -2.52837 0.918567
                      CHANNELS 3 Zrotation Xrotation Yrotation
                      JOINT LeftHandMiddle2
                      {
                        OFFSET 7.41627 -5.81359e-005 0.000116271
                        CHANNELS 3 Zrotation Xrotation Yrotation
                        JOINT LeftHandMiddle3
                        {
                          OFFSET 8.76829 3.87573e-005 -7.75142e-005
                          CHANNELS 3 Zrotation Xrotation Yrotation
                          JOINT LeftHandMiddle4
                          {
                            OFFSET 6.07588 -0.00013565 -5.81356e-005
                            CHANNELS 3 Zrotation Xrotation Yrotation
                            End Site
                            {
                              OFFSET 0 0 0
                            }
                          }
                        }
                      }
                    }
                    JOINT LeftHandRing1
                    {
                      OFFSET 22.465 -1.97467 6.3466
                      CHANNELS 3 Zrotation Xrotation Yrotation
                      JOINT LeftHandRing2
                      {
                        OFFSET 7.36666 -0.000232544 0.000387571
                        CHANNELS 3 Zrotation Xrotation Yrotation
                        JOINT LeftHandRing3
                        {
                          OFFSET 8.07624 -0.000465087 -0.000203475
                          CHANNELS 3 Zrotation Xrotation Yrotation
                          JOINT LeftHandRing4
                          {
                            OFFSET 6.04433 0.00013565 3.87571e-005
                            CHANNELS 3 Zrotation Xrotation Yrotation
                            End Site
                            {
                              OFFSET 0 0 0
                            }
                          }
                        }
                      }
                    }
                    JOINT LeftHandPinky1
                    {
                      OFFSET 19.5278 0.352933 10.4295
                      CHANNELS 3 Zrotation Xrotation Yrotation
                      JOINT LeftHandPinky2
                      {
                        OFFSET 6.16525 5.8136e-005 -0.000251921
                        CHANNELS 3 Zrotation Xrotation Yrotation
                        JOINT LeftHandPinky3
                        {
                          OFFSET 6.14448 -0.000329434 -0.00510625
                          CHANNELS 3 Zrotation Xrotation Yrotation
                          JOINT LeftHandPinky4
                          {
                            OFFSET 4.98555 0.000116272 0.000116271
                            CHANNELS 3 Zrotation Xrotation Yrotation
                            End Site
                            {
                              OFFSET 0 0 0
                            }
                          }
                        }
                      }
                    }
                  }
                }
              }
            }
            JOINT RightShoulder
            {
              OFFSET 20.1309 -6.74152 -12.6063
              CHANNELS 3 Zrotation Xrotation Yrotation
              JOINT RightArm
              {
                OFFSET 34.2171 7.75146e-005 7.75146e-005
                CHANNELS 3 Zrotation Xrotation Yrotation
                JOINT RightForeArm
                {
                  OFFSET 65.4492 0.242543 -0.176501
                  CHANNELS 3 Zrotation Xrotation Yrotation
                  JOINT RightHand
                  {
                    OFFSET 67.3888 -0.0867388 0.0597442
                    CHANNELS 3 Zrotation Xrotation Yrotation
                    JOINT RightHandThumb1
                    {
                      OFFSET 8.78307 -2.85357 -6.05302
                      CHANNELS 3 Zrotation Xrotation Yrotation
                      JOINT RightHandThumb2
                      {
                        OFFSET 8.25493 -7.75145e-005 0
                        CHANNELS 3 Zrotation Xrotation Yrotation
                        JOINT RightHandThumb3
                        {
                          OFFSET 7.24797 -0.000174408 0.000155029
                          CHANNELS 3 Zrotation Xrotation Yrotation
                          JOINT RightHandThumb4
                          {
                            OFFSET 7.00062 0 0
                            CHANNELS 3 Zrotation Xrotation Yrotation
                            End Site
                            {
                              OFFSET 0 0 0
                            }
                          }
                        }
                      }
                    }
                    JOINT RightHandIndex1
                    {
                      OFFSET 24.0991 1.01525 -5.40578
                      CHANNELS 3 Zrotation Xrotation Yrotation
                      JOINT RightHandIndex2
                      {
                        OFFSET 7.26773 7.75144e-005 0.000232543
                        CHANNELS 3 Zrotation Xrotation Yrotation
                        JOINT RightHandIndex3
                        {
                          OFFSET 7.13572 -0.000310058 3.87571e-005
                          CHANNELS 3 Zrotation Xrotation Yrotation
                          JOINT RightHandIndex4
                          {
                            OFFSET 5.46717 0 3.87572e-005
                            CHANNELS 3 Zrotation Xrotation Yrotation
                            End Site
                            {
                              OFFSET 0 0 0
                            }
                          }
                        }
                      }
                    }
                    JOINT RightHandMiddle1
                    {
                      OFFSET 24.4603 2.52899 0.918547
                      CHANNELS 3 Zrotation Xrotation Yrotation
                      JOINT RightHandMiddle2
                      {
                        OFFSET 7.41641 -0.000116272 -0.000116272
                        CHANNELS 3 Zrotation Xrotation Yrotation
                        JOINT RightHandMiddle3
                        {
                          OFFSET 8.76765 -3.87577e-005 0.000232543
                          CHANNELS 3 Zrotation Xrotation Yrotation
                          JOINT RightHandMiddle4
                          {
                            OFFSET 6.07609 -0.000193787 -0.000116271
                            CHANNELS 3 Zrotation Xrotation Yrotation
                            End Site
                            {
                              OFFSET 0 0 0
                            }
                          }
                        }
                      }
                    }
                    JOINT RightHandRing1
                    {
                      OFFSET 22.465 1.97571 6.34696
                      CHANNELS 3 Zrotation Xrotation Yrotation
                      JOINT RightHandRing2
                      {
                        OFFSET 7.36684 0.000193786 0.000155029
                        CHANNELS 3 Zrotation Xrotation Yrotation
                        JOINT RightHandRing3
                        {
                          OFFSET 8.07614 -0.000271301 0
                          CHANNELS 3 Zrotation Xrotation Yrotation
                          JOINT RightHandRing4
                          {
                            OFFSET 6.04468 0.000232543 0
                            CHANNELS 3 Zrotation Xrotation Yrotation
                            End Site
                            {
                              OFFSET 0 0 0
                            }
                          }
                        }
                      }
                    }
                    JOINT RightHandPinky1
                    {
                      OFFSET 19.5277 -0.352346 10.4296
                      CHANNELS 3 Zrotation Xrotation Yrotation
                      JOINT RightHandPinky2
                      {
                        OFFSET 6.16508 0 0.000232543
                        CHANNELS 3 Zrotation Xrotation Yrotation
                        JOINT RightHandPinky3
                        {
                          OFFSET 6.14396 -0.000155048 -0.0048834
                          CHANNELS 3 Zrotation Xrotation Yrotation
                          JOINT RightHandPinky4
                          {
                            OFFSET 4.98577 -7.75146e-005 -7.75143e-005
                            CHANNELS 3 Zrotation Xrotation Yrotation
                            End Site
                            {
                              OFFSET 0 0 0
                            }
                          }
                        }
                      }
                    }
                  }
                }
              }
            }
          }
        }
      }
    }
  }
}
MOTION
Frames:	4
Frame Time:	0.0333333
0 0 0 -90 -7.01671e-015 -180 7.74088 -14.4593 -116.21 -176.741 13.1711 -114.992 -1.51557 -4.4257 -17.8566 3.33802 14.9103 48.2532 -0.572131 0.115056 56.8893 -1.61315e-005 -9.97749e-006 -86.4974 176.353 21.3432 -97.8699 -2.21257 -4.2303 -27.6451 10.98 -5.3132 40.8628 0.588311 -0.0846326 60.5056 -0.00023275 1.44045e-005 -86.4974 0.585027 0.119941 122.239 -3.42734 -4.6639 -12.373 -10.4394 -5.36188 -15.0526 -2.77502 5.18331 8.2836 0.126422 -6.95851 19.8948 -10.2426 0.174742 45.6604 104.234 23.3699 -22.1285 76.0748 14.9796 -6.56014 -7.82263 2.5685 44.9541 -9.65752 -3.39192 0.398747 -158.644 -1.25057 154.969 0.000480109 0.000143074 18.1946 0.00032461 -5.74018e-005 11.959 0.000319097 -0.00144503 -0.00011184 36.0643 86.5085 -17.7556 -0.000464957 -0.000452216 14.4454 0.00117566 -0.000796072 10.5801 -0.000594165 -0.000477972 -2.32869 -1.6934 86.8811 35.2101 2.71394e-005 -0.000173014 17.6049 0.00109213 -0.000967878 18.4312 -0.000597044 -0.00015289 -2.32827 -63.4307 87.7466 103.217 0.000184806 -0.000787746 21.6994 0.00153384 -0.000313116 22.5462 -0.000708254 -0.00064561 -2.32762 -63.1795 86.0904 102.721 0.00132739 -0.00126951 24.1169 9.69906e-005 -0.000116501 22.3014 -6.27137e-005 -8.30858e-005 -2.32873 -102.358 -22.8813 -25.2321 -64.0563 -17.3663 11.6174 14.4646 -2.43673 46.496 -3.19794 42.5746 7.24976 158.644 1.25054 151.962 3.06635e-005 0.000243645 15.1881 0.000258877 0.000220194 8.95277 -0.00202942 0.000198364 -180 -36.0689 -86.5085 -23.3857 -0.000330969 -0.00019326 8.82134 0.000306055 0.000119445 4.95718 -0.000122071 -3.24343e-014 177.672 1.69147 -86.8815 29.5845 5.69635e-005 7.86371e-005 11.9805 0.00488497 0.00138804 12.8066 -0.000149489 7.62306e-005 177.672 63.4328 -87.7471 97.5961 0.000190958 -0.000193941 16.0747 -2.49448e-005 0.0004046 16.9212 2.47957e-006 6.09845e-005 177.672 63.1806 -86.0905 97.0992 -0.000155575 0.000401112 18.4917 0.000130958 5.26549e-005 16.6768 -0.000184346 -3.04923e-005 177.672 
0 0 0 -90 -7.01671e-015 -180 7.73106 -14.5373 -116.199 -176.753 13.1529 -114.978 -1.53152 -4.4703 -17.8599 3.35036 14.8811 48.2425 -0.572131 0.11505 56.8893 -1.61392e-005 -1.54489e-005 -86.4974 176.368 21.3313 -97.9088 -2.2281 -4.26788 -27.6039 11.0099 -5.3876 40.8621 0.588415 -0.0839133 60.5755 -0.00023278 -1.95647e-005 -86.4974 0.589506 0.121323 122.282 -3.44164 -4.66781 -12.3603 -10.4356 -5.37257 -15.0394 -2.77632 5.17788 8.35284 0.134795 -6.96563 20.0267 -10.2793 0.199068 45.7994 104.275 23.3673 -22.1401 76.1287 14.9517 -6.71434 -7.79015 2.60154 45.1282 -9.70588 -3.28383 0.478024 -158.644 -1.25054 154.969 0.000480179 0.0001328 18.1946 0.000324636 -9.82266e-005 11.959 0.000319096 -0.00144921 -0.00011184 36.0642 86.5085 -17.7556 -0.000465077 -0.000454639 14.4453 0.00117573 -0.000811875 10.5801 -0.000594174 -0.000480391 -2.32868 -1.69347 86.8811 35.2101 2.5405e-005 -0.000186767 17.6049 0.00109368 -0.000763364 18.4312 -0.00059705 -0.000152897 -2.32827 -63.4303 87.7466 103.216 0.000184603 -0.0007902 21.6994 0.00153387 -0.000389969 22.5461 -0.000708253 -0.000648033 -2.32762 -63.1795 86.0904 102.721 0.00132748 -0.0012694 24.1169 9.88375e-005 -0.000179128 22.3014 -6.27139e-005 -0.000139058 -2.32872 -102.34 -22.879 -25.2467 -64.1316 -17.377 11.5888 14.4075 -3.72161 43.8881 -2.1441 39.2121 5.49274 158.644 1.25046 151.962 2.84854e-005 0.000241946 15.1881 0.000257878 0.000200435 8.95277 -0.00202942 0.000183105 -180 -36.0674 -86.5084 -23.3842 -0.000332088 -0.0001956 8.82134 0.000305452 0.000106112 4.95718 -0.000122071 -3.24343e-014 177.672 1.69127 -86.8815 29.5843 5.67036e-005 6.40099e-005 11.9805 0.00529958 0.00144339 12.8066 -0.000149489 7.62306e-005 177.672 63.4328 -87.7471 97.5962 0.000197383 -0.000277991 16.0747 -1.95628e-005 0.000334905 16.9212 1.85968e-006 4.57384e-005 177.672 63.1807 -86.0905 97.0993 -0.000144837 0.000313817 18.4917 0.000135766 4.60973e-005 16.6768 -0.000185586 -6.09845e-005 177.672 
0 0 0 -90 -7.01671e-015 -180 7.71525 -14.6097 -116.184 -176.769 13.1297 -114.958 -1.54626 -4.51095 -17.868 3.3627 14.8519 48.2318 -0.572131 0.115041 56.8893 -1.61521e-005 -2.1827e-005 -86.4974 176.363 21.3193 -97.9365 -2.24361 -4.30547 -27.5627 11.0243 -5.43506 40.8577 0.588479 -0.0834559 60.6201 -0.000232795 -8.76886e-005 -86.4974 0.593455 0.122552 122.32 -3.45585 -4.6716 -12.3507 -10.4293 -5.38263 -15.036 -2.77501 5.17983 8.41646 0.138645 -7.01701 20.1622 -10.331 0.168719 45.9308 104.321 23.3643 -22.1537 76.1724 14.9377 -6.81326 -7.76012 2.61074 45.2881 -9.75197 -3.2074 0.538591 -158.644 -1.2505 154.969 0.000479984 0.000110835 18.1946 0.000324524 -0.000179734 11.959 0.000319095 -0.00145604 -0.00011184 36.0641 86.5085 -17.7554 -0.000464939 -0.000454588 14.4454 0.00117567 -0.000842323 10.5801 -0.000594166 -0.000480395 -2.32869 -1.6934 86.881 35.2101 2.70977e-005 -0.000213322 17.6049 0.00109358 -0.000767557 18.4312 -0.000597045 -0.000152901 -2.32827 -63.4294 87.7466 103.215 0.00018489 -0.000790063 21.6994 0.0015326 -0.000236805 22.5462 -0.000708254 -0.000648038 -2.32762 -63.1795 86.0904 102.721 0.00132742 -0.0012728 24.1169 0.000100792 -5.26023e-005 22.3014 -6.27271e-005 -0.000253536 -2.32873 -102.324 -22.8765 -25.2641 -64.2003 -17.3848 11.5423 14.2286 -5.01441 41.2489 -1.18498 35.7728 3.83973 158.644 1.25064 151.962 2.62375e-005 0.000221239 15.1881 0.000257007 0.000161123 8.95278 -0.00202942 0.000183105 -180 -36.0674 -86.5084 -23.3843 -0.000333242 -0.00020001 8.82134 0.000304938 7.73451e-005 4.95718 -0.000122691 -1.52461e-005 177.672 1.69136 -86.8816 29.5844 5.67218e-005 4.68841e-005 11.9805 0.00571162 0.00151241 12.8066 -0.000149489 7.62306e-005 177.672 63.4337 -87.7471 97.5971 0.00020161 -0.000397013 16.0747 -1.51768e-005 0.000478547 16.9212 1.85968e-006 4.57384e-005 177.672 63.1807 -86.0905 97.0993 -0.000140068 0.000199295 18.4917 0.000141605 1.40852e-006 16.6768 -0.000187445 -0.000106723 177.672 
0 0 0 -90 -7.01671e-015 -180 7.6989 -14.6769 -116.164 -176.785 13.1055 -114.935 -1.561 -4.55161 -17.876 3.37032 14.8268 48.2288 -0.572131 0.115021 56.8893 -1.61688e-005 -3.42746e-005 -86.4974 176.337 21.3131 -97.9515 -2.2591 -4.34307 -27.5216 11.0359 -5.45856 40.8519 0.588505 -0.083276 60.6376 -0.000233154 4.82894e-005 -86.4974 0.596897 0.123606 122.352 -3.47532 -4.6762 -12.348 -10.4253 -5.3938 -15.0449 -2.77592 5.18723 8.4745 0.143343 -7.10579 20.3163 -10.3877 0.0861503 46.0535 104.376 23.3607 -22.1706 76.2139 14.9396 -6.87208 -7.73184 2.59902 45.4389 -9.79549 -3.13697 0.592043 -158.644 -1.25042 154.969 0.000480106 6.60789e-005 18.1946 0.000324367 -1.54452e-005 11.959 0.000319096 -0.00146904 -0.00011184 36.0639 86.5084 -17.7553 -0.000465023 -0.000454601 14.4453 0.00117571 -0.000903208 10.5801 -0.000594171 -0.000488033 -2.32868 -1.69345 86.8812 35.2101 2.61841e-005 -0.000265231 17.6049 0.00109365 -0.000773915 18.4312 -0.000597051 -0.000155318 -2.32827 -63.4275 87.7466 103.213 0.000184916 -0.000792462 21.6994 0.00153262 -0.000236776 22.5462 -0.000708258 -0.000648042 -2.32762 -63.1794 86.0904 102.721 0.00132748 -0.00127694 24.1169 0.000101459 -5.57123e-005 22.3014 -6.44949e-005 -2.62236e-005 -2.32872 -102.31 -22.8737 -25.2848 -64.2581 -17.3945 11.5003 13.9347 -6.26799 38.6273 -0.35022 32.2967 2.32255 158.644 1.25061 151.962 2.54529e-005 0.000172034 15.1881 0.000256432 8.66912e-005 8.95277 -0.00202942 0.000152587 -180 -36.0674 -86.5084 -23.3843 -0.000334396 -0.000206871 8.82134 0.000304494 2.2682e-005 4.95717 -0.000123311 -3.04922e-005 177.672 1.69111 -86.8814 29.5842 5.6711e-005 2.31308e-005 11.9805 0.00612066 0.00158991 12.8066 -0.000149489 7.62306e-005 177.672 63.4356 -87.7471 97.5989 0.000203342 -0.000219536 16.0747 -1.03625e-005 0.000469035 16.9211 1.85967e-006 4.57384e-005 177.672 63.181 -86.0906 97.0996 -0.000141494 0.000354591 18.4917 0.000146332 -9.26334e-005 16.6768 -0.000183106 8.32812e-014 177.672 
